<?xml version="1.0" encoding="utf-8"?>
<!-- Generator: Adobe Illustrator 27.0.0, SVG Export Plug-In . SVG Version: 6.00 Build 0)  -->
<svg version="1.1" id="Layer_1" xmlns:sketch="http://www.bohemiancoding.com/sketch/ns"
	 xmlns="http://www.w3.org/2000/svg" xmlns:xlink="http://www.w3.org/1999/xlink" x="0px" y="0px" viewBox="0 0 20 18"
	 style="enable-background:new 0 0 20 18;" xml:space="preserve">
<style type="text/css">
	.st0{fill-rule:evenodd;clip-rule:evenodd;fill:#15232E;}
</style>
<g id="Page-1">
	<g id="Core" transform="translate(-254.000000, -339.000000)">
		<g id="print" transform="translate(254.000000, 339.000000)">
			<path id="Shape" class="st0" d="M17,5H3C1.3,5,0,6.3,0,8v6h4v4h12v-4h4V8C20,6.3,18.7,5,17,5L17,5z M14,16H6v-5h8V16L14,16z
				 M17,9c-0.6,0-1-0.4-1-1s0.4-1,1-1s1,0.4,1,1S17.6,9,17,9L17,9z M16,0H4v4h12V0L16,0z"/>
		</g>
	</g>
</g>
</svg>
