<?xml version="1.0" encoding="utf-8"?>
<!-- Generator: Adobe Illustrator 27.0.0, SVG Export Plug-In . SVG Version: 6.00 Build 0)  -->
<svg version="1.1" id="Layer_1" xmlns="http://www.w3.org/2000/svg" xmlns:xlink="http://www.w3.org/1999/xlink" x="0px" y="0px"
	 viewBox="0 0 24 24" style="enable-background:new 0 0 24 24;" xml:space="preserve">
<style type="text/css">
	.st0{fill:#15232E;}
</style>
<g id="info">
</g>
<g id="icons">
	<g id="dashboard">
		<path class="st0" d="M5,18H3c-1.1,0-2,0.9-2,2s0.9,2,2,2h2c1.1,0,2-0.9,2-2S6.1,18,5,18z"/>
		<path class="st0" d="M13,16h-2c-1.1,0-2,0.9-2,2v2c0,1.1,0.9,2,2,2h2c1.1,0,2-0.9,2-2v-2C15,16.9,14.1,16,13,16z"/>
		<path class="st0" d="M21,12h-2c-1.1,0-2,0.9-2,2v6c0,1.1,0.9,2,2,2h2c1.1,0,2-0.9,2-2v-6C23,12.9,22.1,12,21,12z"/>
		<path class="st0" d="M22,2h-6.6c-0.9,0-1.3,1.1-0.7,1.7l1.9,1.9C12.9,9.8,7.6,13,2,13c-0.6,0-1,0.4-1,1s0.4,1,1,1
			c6.7,0,12.9-1.9,17.4-6.6l1.8,1.8c0.6,0.6,1.7,0.2,1.7-0.7V3C23,2.4,22.6,2,22,2z"/>
	</g>
</g>
</svg>
