<?xml version="1.0" encoding="utf-8"?>
<!-- Generator: Adobe Illustrator 27.0.0, SVG Export Plug-In . SVG Version: 6.00 Build 0)  -->
<svg version="1.1" id="Layer_1" xmlns="http://www.w3.org/2000/svg" xmlns:xlink="http://www.w3.org/1999/xlink" x="0px" y="0px"
	 viewBox="0 0 24 24" style="enable-background:new 0 0 24 24;" xml:space="preserve">
<style type="text/css">
	.st0{fill:#0B1217;}
</style>
<path class="st0" d="M12,22c-1.4,0-2.7-0.3-3.9-0.8S5.8,20,4.9,19.1c-0.9-0.9-1.6-2-2.1-3.2S2,13.4,2,12s0.3-2.7,0.8-3.9
	S4,5.8,4.9,4.9s2-1.6,3.2-2.1S10.6,2,12,2s2.7,0.3,3.9,0.8s2.3,1.2,3.2,2.1s1.6,2,2.1,3.2C21.7,9.3,22,10.6,22,12s-0.3,2.7-0.8,3.9
	c-0.5,1.2-1.2,2.3-2.1,3.2c-0.9,0.9-2,1.6-3.2,2.1S13.4,22,12,22z M11,19.9v-2c-0.6,0-1-0.2-1.4-0.6S9,16.5,9,16v-1l-4.8-4.8
	c-0.1,0.3-0.1,0.6-0.1,0.9C4,11.4,4,11.7,4,12c0,2,0.7,3.8,2,5.3C7.3,18.8,9,19.7,11,19.9z M17.9,17.4c0.3-0.4,0.6-0.8,0.9-1.2
	c0.3-0.4,0.5-0.9,0.7-1.3c0.2-0.5,0.3-0.9,0.4-1.4s0.1-1,0.1-1.5c0-1.6-0.5-3.1-1.4-4.5S16.5,5.2,15,4.6V5c0,0.6-0.2,1-0.6,1.4
	C14,6.8,13.6,7,13,7h-2v2c0,0.3-0.1,0.5-0.3,0.7C10.5,9.9,10.3,10,10,10H8v2h6c0.3,0,0.5,0.1,0.7,0.3c0.2,0.2,0.3,0.4,0.3,0.7v3h1
	c0.4,0,0.8,0.1,1.2,0.4C17.5,16.6,17.8,17,17.9,17.4z"/>
</svg>
